<?xml version="1.0" encoding="UTF-8" standalone="no"?>
<!DOCTYPE svg PUBLIC "-//W3C//DTD SVG 1.1//EN"
 "http://www.w3.org/Graphics/SVG/1.1/DTD/svg11.dtd">
<!-- Generated by graphviz version 2.38.0 (20140413.2041)
 -->
<!-- Title: controllers_diagram Pages: 1 -->
<svg width="687pt" height="658pt"
 viewBox="0.00 0.00 687.33 657.88" xmlns="http://www.w3.org/2000/svg" xmlns:xlink="http://www.w3.org/1999/xlink">
<g id="graph0" class="graph" transform="scale(1 1) rotate(0) translate(285.828 324.708)">
<title>controllers_diagram</title>
<polygon fill="white" stroke="none" points="-285.828,333.168 -285.828,-324.708 401.5,-324.708 401.5,333.168 -285.828,333.168"/>
<!-- _diagram_info -->
<g id="node1" class="node"><title>_diagram_info</title>
<text text-anchor="start" x="196.5" y="-251.6" font-family="Times New Roman,serif" font-size="13.00">Controllers diagram</text>
<text text-anchor="start" x="196.5" y="-237.6" font-family="Times New Roman,serif" font-size="13.00">Date: Jul 28 2014 &#45; 10:56</text>
<text text-anchor="start" x="196.5" y="-223.6" font-family="Times New Roman,serif" font-size="13.00">Migration version: 20140723001033</text>
<text text-anchor="start" x="196.5" y="-209.6" font-family="Times New Roman,serif" font-size="13.00">Generated by RailRoady 1.1.1</text>
<text text-anchor="start" x="196.5" y="-195.6" font-family="Times New Roman,serif" font-size="13.00">http://railroady.prestonlee.com</text>
</g>
<!-- AdminController -->
<g id="node2" class="node"><title>AdminController</title>
<path fill="none" stroke="black" d="M-269.828,217.996C-269.828,217.996 -154.828,217.996 -154.828,217.996 -148.828,217.996 -142.828,211.996 -142.828,205.996 -142.828,205.996 -142.828,46.9959 -142.828,46.9959 -142.828,40.9959 -148.828,34.9959 -154.828,34.9959 -154.828,34.9959 -269.828,34.9959 -269.828,34.9959 -275.828,34.9959 -281.828,40.9959 -281.828,46.9959 -281.828,46.9959 -281.828,205.996 -281.828,205.996 -281.828,211.996 -275.828,217.996 -269.828,217.996"/>
<text text-anchor="middle" x="-212.328" y="50.1959" font-family="Times New Roman,serif" font-size="14.00">AdminController</text>
<polyline fill="none" stroke="black" points="-281.828,57.9959 -142.828,57.9959 "/>
<text text-anchor="start" x="-273.828" y="73.1959" font-family="Times New Roman,serif" font-size="14.00">destroy</text>
<text text-anchor="start" x="-273.828" y="88.1959" font-family="Times New Roman,serif" font-size="14.00">edit</text>
<text text-anchor="start" x="-273.828" y="103.196" font-family="Times New Roman,serif" font-size="14.00">index</text>
<text text-anchor="start" x="-273.828" y="118.196" font-family="Times New Roman,serif" font-size="14.00">update</text>
<polyline fill="none" stroke="black" points="-281.828,125.996 -142.828,125.996 "/>
<polyline fill="none" stroke="black" points="-281.828,149.996 -142.828,149.996 "/>
<text text-anchor="start" x="-273.828" y="165.196" font-family="Times New Roman,serif" font-size="14.00">_layout</text>
<text text-anchor="start" x="-273.828" y="180.196" font-family="Times New Roman,serif" font-size="14.00">admin_params</text>
<text text-anchor="start" x="-273.828" y="195.196" font-family="Times New Roman,serif" font-size="14.00">other_admin_change?</text>
<text text-anchor="start" x="-273.828" y="210.196" font-family="Times New Roman,serif" font-size="14.00">set_admin</text>
</g>
<!-- ApplicationController -->
<g id="node3" class="node"><title>ApplicationController</title>
<path fill="none" stroke="black" d="M-119.221,65.3105C-119.221,65.3105 43.7791,65.3105 43.7791,65.3105 49.7791,65.3105 55.7791,59.3105 55.7791,53.3105 55.7791,53.3105 55.7791,-46.6895 55.7791,-46.6895 55.7791,-52.6895 49.7791,-58.6895 43.7791,-58.6895 43.7791,-58.6895 -119.221,-58.6895 -119.221,-58.6895 -125.221,-58.6895 -131.221,-52.6895 -131.221,-46.6895 -131.221,-46.6895 -131.221,53.3105 -131.221,53.3105 -131.221,59.3105 -125.221,65.3105 -119.221,65.3105"/>
<text text-anchor="middle" x="-37.7209" y="-43.4895" font-family="Times New Roman,serif" font-size="14.00">ApplicationController</text>
<polyline fill="none" stroke="black" points="-131.221,-35.6895 55.7791,-35.6895 "/>
<polyline fill="none" stroke="black" points="-131.221,-11.6895 55.7791,-11.6895 "/>
<polyline fill="none" stroke="black" points="-131.221,12.3105 55.7791,12.3105 "/>
<text text-anchor="start" x="-123.221" y="27.5105" font-family="Times New Roman,serif" font-size="14.00">_layout</text>
<text text-anchor="start" x="-123.221" y="42.5105" font-family="Times New Roman,serif" font-size="14.00">set_admin_unapproved_count</text>
<text text-anchor="start" x="-123.221" y="57.5105" font-family="Times New Roman,serif" font-size="14.00">set_headers</text>
</g>
<!-- ApplicationController&#45;&gt;AdminController -->
<g id="edge1" class="edge"><title>ApplicationController&#45;&gt;AdminController</title>
<path fill="none" stroke="black" d="M-125.792,65.4445C-131.385,69.391 -136.975,73.3345 -142.469,77.2102"/>
</g>
<!-- CitationsController -->
<g id="node4" class="node"><title>CitationsController</title>
<path fill="none" stroke="black" d="M-22.1883,328.668C-22.1883,328.668 75.8117,328.668 75.8117,328.668 81.8117,328.668 87.8117,322.668 87.8117,316.668 87.8117,316.668 87.8117,97.6679 87.8117,97.6679 87.8117,91.6679 81.8117,85.6679 75.8117,85.6679 75.8117,85.6679 -22.1883,85.6679 -22.1883,85.6679 -28.1883,85.6679 -34.1883,91.6679 -34.1883,97.6679 -34.1883,97.6679 -34.1883,316.668 -34.1883,316.668 -34.1883,322.668 -28.1883,328.668 -22.1883,328.668"/>
<text text-anchor="middle" x="26.8117" y="100.868" font-family="Times New Roman,serif" font-size="14.00">CitationsController</text>
<polyline fill="none" stroke="black" points="-34.1883,108.668 87.8117,108.668 "/>
<text text-anchor="start" x="-26.1883" y="123.868" font-family="Times New Roman,serif" font-size="14.00">create</text>
<text text-anchor="start" x="-26.1883" y="138.868" font-family="Times New Roman,serif" font-size="14.00">destroy</text>
<text text-anchor="start" x="-26.1883" y="153.868" font-family="Times New Roman,serif" font-size="14.00">edit</text>
<text text-anchor="start" x="-26.1883" y="168.868" font-family="Times New Roman,serif" font-size="14.00">index</text>
<text text-anchor="start" x="-26.1883" y="183.868" font-family="Times New Roman,serif" font-size="14.00">new</text>
<text text-anchor="start" x="-26.1883" y="198.868" font-family="Times New Roman,serif" font-size="14.00">search</text>
<text text-anchor="start" x="-26.1883" y="213.868" font-family="Times New Roman,serif" font-size="14.00">show</text>
<text text-anchor="start" x="-26.1883" y="228.868" font-family="Times New Roman,serif" font-size="14.00">update</text>
<polyline fill="none" stroke="black" points="-34.1883,236.668 87.8117,236.668 "/>
<polyline fill="none" stroke="black" points="-34.1883,260.668 87.8117,260.668 "/>
<text text-anchor="start" x="-26.1883" y="275.868" font-family="Times New Roman,serif" font-size="14.00">_layout</text>
<text text-anchor="start" x="-26.1883" y="290.868" font-family="Times New Roman,serif" font-size="14.00">citation_params</text>
<text text-anchor="start" x="-26.1883" y="305.868" font-family="Times New Roman,serif" font-size="14.00">citation_url</text>
<text text-anchor="start" x="-26.1883" y="320.868" font-family="Times New Roman,serif" font-size="14.00">set_citation</text>
</g>
<!-- ApplicationController&#45;&gt;CitationsController -->
<g id="edge2" class="edge"><title>ApplicationController&#45;&gt;CitationsController</title>
<path fill="none" stroke="black" d="M-18.0083,65.5821C-15.9697,72.0221 -13.8518,78.7124 -11.6953,85.5248"/>
</g>
<!-- GalaxiesController -->
<g id="node5" class="node"><title>GalaxiesController</title>
<path fill="none" stroke="black" d="M-26.7566,-77.2083C-26.7566,-77.2083 92.2434,-77.2083 92.2434,-77.2083 98.2434,-77.2083 104.243,-83.2083 104.243,-89.2083 104.243,-89.2083 104.243,-308.208 104.243,-308.208 104.243,-314.208 98.2434,-320.208 92.2434,-320.208 92.2434,-320.208 -26.7566,-320.208 -26.7566,-320.208 -32.7566,-320.208 -38.7566,-314.208 -38.7566,-308.208 -38.7566,-308.208 -38.7566,-89.2083 -38.7566,-89.2083 -38.7566,-83.2083 -32.7566,-77.2083 -26.7566,-77.2083"/>
<text text-anchor="middle" x="32.7434" y="-305.008" font-family="Times New Roman,serif" font-size="14.00">GalaxiesController</text>
<polyline fill="none" stroke="black" points="-38.7566,-297.208 104.243,-297.208 "/>
<text text-anchor="start" x="-30.7566" y="-282.008" font-family="Times New Roman,serif" font-size="14.00">create</text>
<text text-anchor="start" x="-30.7566" y="-267.008" font-family="Times New Roman,serif" font-size="14.00">destroy</text>
<text text-anchor="start" x="-30.7566" y="-252.008" font-family="Times New Roman,serif" font-size="14.00">edit</text>
<text text-anchor="start" x="-30.7566" y="-237.008" font-family="Times New Roman,serif" font-size="14.00">index</text>
<text text-anchor="start" x="-30.7566" y="-222.008" font-family="Times New Roman,serif" font-size="14.00">index_galaxy_citations</text>
<text text-anchor="start" x="-30.7566" y="-207.008" font-family="Times New Roman,serif" font-size="14.00">new</text>
<text text-anchor="start" x="-30.7566" y="-192.008" font-family="Times New Roman,serif" font-size="14.00">search</text>
<text text-anchor="start" x="-30.7566" y="-177.008" font-family="Times New Roman,serif" font-size="14.00">show</text>
<text text-anchor="start" x="-30.7566" y="-162.008" font-family="Times New Roman,serif" font-size="14.00">update</text>
<polyline fill="none" stroke="black" points="-38.7566,-154.208 104.243,-154.208 "/>
<polyline fill="none" stroke="black" points="-38.7566,-130.208 104.243,-130.208 "/>
<text text-anchor="start" x="-30.7566" y="-115.008" font-family="Times New Roman,serif" font-size="14.00">_layout</text>
<text text-anchor="start" x="-30.7566" y="-100.008" font-family="Times New Roman,serif" font-size="14.00">galaxy_params</text>
<text text-anchor="start" x="-30.7566" y="-85.0083" font-family="Times New Roman,serif" font-size="14.00">set_galaxy</text>
</g>
<!-- ApplicationController&#45;&gt;GalaxiesController -->
<g id="edge3" class="edge"><title>ApplicationController&#45;&gt;GalaxiesController</title>
<path fill="none" stroke="black" d="M-16.0043,-58.9502C-13.9824,-64.7469 -11.8906,-70.7443 -9.76164,-76.8478"/>
</g>
<!-- VelocitiesController -->
<g id="node6" class="node"><title>VelocitiesController</title>
<path fill="none" stroke="black" d="M124.258,127.464C124.258,127.464 228.258,127.464 228.258,127.464 234.258,127.464 240.258,121.464 240.258,115.464 240.258,115.464 240.258,-103.536 240.258,-103.536 240.258,-109.536 234.258,-115.536 228.258,-115.536 228.258,-115.536 124.258,-115.536 124.258,-115.536 118.258,-115.536 112.258,-109.536 112.258,-103.536 112.258,-103.536 112.258,115.464 112.258,115.464 112.258,121.464 118.258,127.464 124.258,127.464"/>
<text text-anchor="middle" x="176.258" y="-100.336" font-family="Times New Roman,serif" font-size="14.00">VelocitiesController</text>
<polyline fill="none" stroke="black" points="112.258,-92.5362 240.258,-92.5362 "/>
<text text-anchor="start" x="120.258" y="-77.3362" font-family="Times New Roman,serif" font-size="14.00">create</text>
<text text-anchor="start" x="120.258" y="-62.3362" font-family="Times New Roman,serif" font-size="14.00">destroy</text>
<text text-anchor="start" x="120.258" y="-47.3362" font-family="Times New Roman,serif" font-size="14.00">edit</text>
<text text-anchor="start" x="120.258" y="-32.3362" font-family="Times New Roman,serif" font-size="14.00">index</text>
<text text-anchor="start" x="120.258" y="-17.3362" font-family="Times New Roman,serif" font-size="14.00">new</text>
<text text-anchor="start" x="120.258" y="-2.33619" font-family="Times New Roman,serif" font-size="14.00">show</text>
<text text-anchor="start" x="120.258" y="12.6638" font-family="Times New Roman,serif" font-size="14.00">update</text>
<polyline fill="none" stroke="black" points="112.258,20.4638 240.258,20.4638 "/>
<polyline fill="none" stroke="black" points="112.258,44.4638 240.258,44.4638 "/>
<text text-anchor="start" x="120.258" y="59.6638" font-family="Times New Roman,serif" font-size="14.00">_layout</text>
<text text-anchor="start" x="120.258" y="74.6638" font-family="Times New Roman,serif" font-size="14.00">find_galaxy</text>
<text text-anchor="start" x="120.258" y="89.6638" font-family="Times New Roman,serif" font-size="14.00">set_velocity</text>
<text text-anchor="start" x="120.258" y="104.664" font-family="Times New Roman,serif" font-size="14.00">velocity_params</text>
<text text-anchor="start" x="120.258" y="119.664" font-family="Times New Roman,serif" font-size="14.00">velocity_url</text>
</g>
<!-- ApplicationController&#45;&gt;VelocitiesController -->
<g id="edge4" class="edge"><title>ApplicationController&#45;&gt;VelocitiesController</title>
<path fill="none" stroke="black" d="M55.822,4.4704C74.8273,4.70607 94.4078,4.94887 112.113,5.16841"/>
</g>
<!-- WelcomeController -->
<g id="node7" class="node"><title>WelcomeController</title>
<path fill="none" stroke="black" d="M-258.764,-72.2298C-258.764,-72.2298 -156.764,-72.2298 -156.764,-72.2298 -150.764,-72.2298 -144.764,-78.2298 -144.764,-84.2298 -144.764,-84.2298 -144.764,-168.23 -144.764,-168.23 -144.764,-174.23 -150.764,-180.23 -156.764,-180.23 -156.764,-180.23 -258.764,-180.23 -258.764,-180.23 -264.764,-180.23 -270.764,-174.23 -270.764,-168.23 -270.764,-168.23 -270.764,-84.2298 -270.764,-84.2298 -270.764,-78.2298 -264.764,-72.2298 -258.764,-72.2298"/>
<text text-anchor="middle" x="-207.764" y="-165.03" font-family="Times New Roman,serif" font-size="14.00">WelcomeController</text>
<polyline fill="none" stroke="black" points="-270.764,-157.23 -144.764,-157.23 "/>
<text text-anchor="start" x="-262.764" y="-142.03" font-family="Times New Roman,serif" font-size="14.00">developers</text>
<text text-anchor="start" x="-262.764" y="-127.03" font-family="Times New Roman,serif" font-size="14.00">index</text>
<polyline fill="none" stroke="black" points="-270.764,-119.23 -144.764,-119.23 "/>
<polyline fill="none" stroke="black" points="-270.764,-95.2298 -144.764,-95.2298 "/>
<text text-anchor="start" x="-262.764" y="-80.0298" font-family="Times New Roman,serif" font-size="14.00">_layout</text>
</g>
<!-- ApplicationController&#45;&gt;WelcomeController -->
<g id="edge5" class="edge"><title>ApplicationController&#45;&gt;WelcomeController</title>
<path fill="none" stroke="black" d="M-119.256,-58.8037C-127.78,-65.297 -136.35,-71.826 -144.624,-78.129"/>
</g>
</g>
</svg>
