<?xml version="1.0" encoding="UTF-8" standalone="no"?>
<!DOCTYPE svg PUBLIC "-//W3C//DTD SVG 1.1//EN"
 "http://www.w3.org/Graphics/SVG/1.1/DTD/svg11.dtd">
<!-- Generated by graphviz version 2.38.0 (20140413.2041)
 -->
<!-- Title: models_diagram Pages: 1 -->
<svg width="521pt" height="770pt"
 viewBox="0.00 0.00 521.00 770.00" xmlns="http://www.w3.org/2000/svg" xmlns:xlink="http://www.w3.org/1999/xlink">
<g id="graph0" class="graph" transform="scale(1 1) rotate(0) translate(4 766)">
<title>models_diagram</title>
<polygon fill="white" stroke="none" points="-4,4 -4,-766 517,-766 517,4 -4,4"/>
<!-- _diagram_info -->
<g id="node1" class="node"><title>_diagram_info</title>
<text text-anchor="start" x="25.5" y="-747.6" font-family="Times New Roman,serif" font-size="13.00">Models diagram</text>
<text text-anchor="start" x="25.5" y="-733.6" font-family="Times New Roman,serif" font-size="13.00">Date: Jul 28 2014 &#45; 10:56</text>
<text text-anchor="start" x="25.5" y="-719.6" font-family="Times New Roman,serif" font-size="13.00">Migration version: 20140723001033</text>
<text text-anchor="start" x="25.5" y="-705.6" font-family="Times New Roman,serif" font-size="13.00">Generated by RailRoady 1.1.1</text>
<text text-anchor="start" x="25.5" y="-691.6" font-family="Times New Roman,serif" font-size="13.00">http://railroady.prestonlee.com</text>
</g>
<!-- Admin -->
<g id="node2" class="node"><title>Admin</title>
<path fill="none" stroke="black" d="M12,-391.5C12,-391.5 194,-391.5 194,-391.5 200,-391.5 206,-397.5 206,-403.5 206,-403.5 206,-635.5 206,-635.5 206,-641.5 200,-647.5 194,-647.5 194,-647.5 12,-647.5 12,-647.5 6,-647.5 0,-641.5 0,-635.5 0,-635.5 0,-403.5 0,-403.5 0,-397.5 6,-391.5 12,-391.5"/>
<text text-anchor="middle" x="103" y="-632.3" font-family="Times New Roman,serif" font-size="14.00">Admin</text>
<polyline fill="none" stroke="black" points="0,-624.5 206,-624.5 "/>
<text text-anchor="start" x="8" y="-609.3" font-family="Times New Roman,serif" font-size="14.00">id :integer</text>
<text text-anchor="start" x="8" y="-594.3" font-family="Times New Roman,serif" font-size="14.00">email :string</text>
<text text-anchor="start" x="8" y="-579.3" font-family="Times New Roman,serif" font-size="14.00">encrypted_password :string</text>
<text text-anchor="start" x="8" y="-564.3" font-family="Times New Roman,serif" font-size="14.00">reset_password_token :string</text>
<text text-anchor="start" x="8" y="-549.3" font-family="Times New Roman,serif" font-size="14.00">reset_password_sent_at :datetime</text>
<text text-anchor="start" x="8" y="-534.3" font-family="Times New Roman,serif" font-size="14.00">remember_created_at :datetime</text>
<text text-anchor="start" x="8" y="-519.3" font-family="Times New Roman,serif" font-size="14.00">sign_in_count :integer</text>
<text text-anchor="start" x="8" y="-504.3" font-family="Times New Roman,serif" font-size="14.00">current_sign_in_at :datetime</text>
<text text-anchor="start" x="8" y="-489.3" font-family="Times New Roman,serif" font-size="14.00">last_sign_in_at :datetime</text>
<text text-anchor="start" x="8" y="-474.3" font-family="Times New Roman,serif" font-size="14.00">current_sign_in_ip :string</text>
<text text-anchor="start" x="8" y="-459.3" font-family="Times New Roman,serif" font-size="14.00">last_sign_in_ip :string</text>
<text text-anchor="start" x="8" y="-444.3" font-family="Times New Roman,serif" font-size="14.00">created_at :datetime</text>
<text text-anchor="start" x="8" y="-429.3" font-family="Times New Roman,serif" font-size="14.00">updated_at :datetime</text>
<text text-anchor="start" x="8" y="-414.3" font-family="Times New Roman,serif" font-size="14.00">approved :boolean</text>
<text text-anchor="start" x="8" y="-399.3" font-family="Times New Roman,serif" font-size="14.00">super_user :boolean</text>
</g>
<!-- Citation -->
<g id="node3" class="node"><title>Citation</title>
<path fill="none" stroke="black" d="M274,-399C274,-399 382,-399 382,-399 388,-399 394,-405 394,-411 394,-411 394,-628 394,-628 394,-634 388,-640 382,-640 382,-640 274,-640 274,-640 268,-640 262,-634 262,-628 262,-628 262,-411 262,-411 262,-405 268,-399 274,-399"/>
<text text-anchor="middle" x="328" y="-624.8" font-family="Times New Roman,serif" font-size="14.00">Citation</text>
<polyline fill="none" stroke="black" points="262,-617 394,-617 "/>
<text text-anchor="start" x="270" y="-601.8" font-family="Times New Roman,serif" font-size="14.00">id :integer</text>
<text text-anchor="start" x="270" y="-586.8" font-family="Times New Roman,serif" font-size="14.00">author :string</text>
<text text-anchor="start" x="270" y="-571.8" font-family="Times New Roman,serif" font-size="14.00">title :string</text>
<text text-anchor="start" x="270" y="-556.8" font-family="Times New Roman,serif" font-size="14.00">bibtex :text</text>
<text text-anchor="start" x="270" y="-541.8" font-family="Times New Roman,serif" font-size="14.00">journal :string</text>
<text text-anchor="start" x="270" y="-526.8" font-family="Times New Roman,serif" font-size="14.00">year :integer</text>
<text text-anchor="start" x="270" y="-511.8" font-family="Times New Roman,serif" font-size="14.00">volume :integer</text>
<text text-anchor="start" x="270" y="-496.8" font-family="Times New Roman,serif" font-size="14.00">number :integer</text>
<text text-anchor="start" x="270" y="-481.8" font-family="Times New Roman,serif" font-size="14.00">pages :integer</text>
<text text-anchor="start" x="270" y="-466.8" font-family="Times New Roman,serif" font-size="14.00">month :string</text>
<text text-anchor="start" x="270" y="-451.8" font-family="Times New Roman,serif" font-size="14.00">note :string</text>
<text text-anchor="start" x="270" y="-436.8" font-family="Times New Roman,serif" font-size="14.00">key :string</text>
<text text-anchor="start" x="270" y="-421.8" font-family="Times New Roman,serif" font-size="14.00">created_at :datetime</text>
<text text-anchor="start" x="270" y="-406.8" font-family="Times New Roman,serif" font-size="14.00">updated_at :datetime</text>
</g>
<!-- Galaxy -->
<g id="node4" class="node"><title>Galaxy</title>
<path fill="none" stroke="black" d="M312.5,-173.5C312.5,-173.5 425.5,-173.5 425.5,-173.5 431.5,-173.5 437.5,-179.5 437.5,-185.5 437.5,-185.5 437.5,-342.5 437.5,-342.5 437.5,-348.5 431.5,-354.5 425.5,-354.5 425.5,-354.5 312.5,-354.5 312.5,-354.5 306.5,-354.5 300.5,-348.5 300.5,-342.5 300.5,-342.5 300.5,-185.5 300.5,-185.5 300.5,-179.5 306.5,-173.5 312.5,-173.5"/>
<text text-anchor="middle" x="369" y="-339.3" font-family="Times New Roman,serif" font-size="14.00">Galaxy</text>
<polyline fill="none" stroke="black" points="300.5,-331.5 437.5,-331.5 "/>
<text text-anchor="start" x="308.5" y="-316.3" font-family="Times New Roman,serif" font-size="14.00">id :integer</text>
<text text-anchor="start" x="308.5" y="-301.3" font-family="Times New Roman,serif" font-size="14.00">galaxy_name :string</text>
<text text-anchor="start" x="308.5" y="-286.3" font-family="Times New Roman,serif" font-size="14.00">galaxy_type :string</text>
<text text-anchor="start" x="308.5" y="-271.3" font-family="Times New Roman,serif" font-size="14.00">distance :float</text>
<text text-anchor="start" x="308.5" y="-256.3" font-family="Times New Roman,serif" font-size="14.00">luminosity :float</text>
<text text-anchor="start" x="308.5" y="-241.3" font-family="Times New Roman,serif" font-size="14.00">scale_length :float</text>
<text text-anchor="start" x="308.5" y="-226.3" font-family="Times New Roman,serif" font-size="14.00">mass_hydrogen :float</text>
<text text-anchor="start" x="308.5" y="-211.3" font-family="Times New Roman,serif" font-size="14.00">mass_disk :float</text>
<text text-anchor="start" x="308.5" y="-196.3" font-family="Times New Roman,serif" font-size="14.00">created_at :datetime</text>
<text text-anchor="start" x="308.5" y="-181.3" font-family="Times New Roman,serif" font-size="14.00">updated_at :datetime</text>
</g>
<!-- Citation&#45;&gt;Galaxy -->
<g id="edge3" class="edge"><title>Citation&#45;&gt;Galaxy</title>
<path fill="none" stroke="#28a96b" d="M348.996,-388.684C350.305,-380.588 351.612,-372.509 352.895,-364.578"/>
<polygon fill="#28a96b" stroke="#28a96b" points="348.956,-388.93 342.917,-398.084 348.158,-393.866 347.359,-398.802 347.359,-398.802 347.359,-398.802 348.158,-393.866 351.802,-399.521 348.956,-388.93 348.956,-388.93"/>
<polygon fill="#28a96b" stroke="#28a96b" points="352.908,-364.494 358.947,-355.341 353.706,-359.558 354.505,-354.623 354.505,-354.623 354.505,-354.623 353.706,-359.558 350.063,-353.904 352.908,-364.494 352.908,-364.494"/>
</g>
<!-- GalaxyCitation -->
<g id="node5" class="node"><title>GalaxyCitation</title>
<path fill="none" stroke="black" d="M218,-15.5C218,-15.5 326,-15.5 326,-15.5 332,-15.5 338,-21.5 338,-27.5 338,-27.5 338,-109.5 338,-109.5 338,-115.5 332,-121.5 326,-121.5 326,-121.5 218,-121.5 218,-121.5 212,-121.5 206,-115.5 206,-109.5 206,-109.5 206,-27.5 206,-27.5 206,-21.5 212,-15.5 218,-15.5"/>
<text text-anchor="middle" x="272" y="-106.3" font-family="Times New Roman,serif" font-size="14.00">GalaxyCitation</text>
<polyline fill="none" stroke="black" points="206,-98.5 338,-98.5 "/>
<text text-anchor="start" x="214" y="-83.3" font-family="Times New Roman,serif" font-size="14.00">id :integer</text>
<text text-anchor="start" x="214" y="-68.3" font-family="Times New Roman,serif" font-size="14.00">galaxy_id :integer</text>
<text text-anchor="start" x="214" y="-53.3" font-family="Times New Roman,serif" font-size="14.00">citation_id :integer</text>
<text text-anchor="start" x="214" y="-38.3" font-family="Times New Roman,serif" font-size="14.00">created_at :datetime</text>
<text text-anchor="start" x="214" y="-23.3" font-family="Times New Roman,serif" font-size="14.00">updated_at :datetime</text>
</g>
<!-- Citation&#45;&gt;GalaxyCitation -->
<g id="edge2" class="edge"><title>Citation&#45;&gt;GalaxyCitation</title>
<path fill="none" stroke="#9a151a" d="M297.111,-390.872C294.794,-378.792 292.702,-366.694 291,-355 279.883,-278.6 275.261,-189.737 273.346,-131.703"/>
<ellipse fill="none" stroke="#9a151a" cx="297.896" cy="-394.877" rx="4.00001" ry="4.00001"/>
<polygon fill="#9a151a" stroke="#9a151a" points="273.342,-131.588 277.527,-121.452 273.186,-126.59 273.029,-121.593 273.029,-121.593 273.029,-121.593 273.186,-126.59 268.531,-121.734 273.342,-131.588 273.342,-131.588"/>
</g>
<!-- Galaxy&#45;&gt;GalaxyCitation -->
<g id="edge5" class="edge"><title>Galaxy&#45;&gt;GalaxyCitation</title>
<path fill="none" stroke="#766ffa" d="M320.301,-165.853C314.331,-153.944 308.365,-142.043 302.765,-130.872"/>
<ellipse fill="none" stroke="#766ffa" cx="322.257" cy="-169.755" rx="4.00002" ry="4.00002"/>
<polygon fill="#766ffa" stroke="#766ffa" points="302.636,-130.615 302.178,-119.659 300.396,-126.145 298.155,-121.675 298.155,-121.675 298.155,-121.675 300.396,-126.145 294.132,-123.692 302.636,-130.615 302.636,-130.615"/>
</g>
<!-- Velocity -->
<g id="node6" class="node"><title>Velocity</title>
<path fill="none" stroke="black" d="M389,-0.5C389,-0.5 501,-0.5 501,-0.5 507,-0.5 513,-6.5 513,-12.5 513,-12.5 513,-124.5 513,-124.5 513,-130.5 507,-136.5 501,-136.5 501,-136.5 389,-136.5 389,-136.5 383,-136.5 377,-130.5 377,-124.5 377,-124.5 377,-12.5 377,-12.5 377,-6.5 383,-0.5 389,-0.5"/>
<text text-anchor="middle" x="445" y="-121.3" font-family="Times New Roman,serif" font-size="14.00">Velocity</text>
<polyline fill="none" stroke="black" points="377,-113.5 513,-113.5 "/>
<text text-anchor="start" x="385" y="-98.3" font-family="Times New Roman,serif" font-size="14.00">id :integer</text>
<text text-anchor="start" x="385" y="-83.3" font-family="Times New Roman,serif" font-size="14.00">r :float</text>
<text text-anchor="start" x="385" y="-68.3" font-family="Times New Roman,serif" font-size="14.00">vrot_data :float</text>
<text text-anchor="start" x="385" y="-53.3" font-family="Times New Roman,serif" font-size="14.00">galaxy_id :integer</text>
<text text-anchor="start" x="385" y="-38.3" font-family="Times New Roman,serif" font-size="14.00">vrot_data_error :float</text>
<text text-anchor="start" x="385" y="-23.3" font-family="Times New Roman,serif" font-size="14.00">created_at :datetime</text>
<text text-anchor="start" x="385" y="-8.3" font-family="Times New Roman,serif" font-size="14.00">updated_at :datetime</text>
</g>
<!-- Galaxy&#45;&gt;Velocity -->
<g id="edge6" class="edge"><title>Galaxy&#45;&gt;Velocity</title>
<path fill="none" stroke="#3d82ef" d="M407.182,-165.788C409.786,-159.156 412.39,-152.527 414.944,-146.025"/>
<ellipse fill="none" stroke="#3d82ef" cx="405.681" cy="-169.607" rx="4.00001" ry="4.00001"/>
<polygon fill="#3d82ef" stroke="#3d82ef" points="414.987,-145.914 422.832,-138.251 416.815,-141.26 418.643,-136.606 418.643,-136.606 418.643,-136.606 416.815,-141.26 414.455,-134.961 414.987,-145.914 414.987,-145.914"/>
</g>
<!-- ActiveRecord::Base -->
<g id="node7" class="node"><title>ActiveRecord::Base</title>
<ellipse fill="none" stroke="black" cx="328" cy="-723" rx="83.3857" ry="18"/>
<text text-anchor="middle" x="328" y="-719.3" font-family="Times New Roman,serif" font-size="14.00">ActiveRecord::Base</text>
</g>
<!-- ActiveRecord::Base&#45;&gt;Admin -->
<g id="edge1" class="edge"><title>ActiveRecord::Base&#45;&gt;Admin</title>
<path fill="none" stroke="black" d="M301.032,-705.936C278.407,-691.906 245.755,-670.34 220,-648 215.348,-643.964 210.69,-639.758 206.058,-635.433"/>
</g>
<!-- ActiveRecord::Base&#45;&gt;Citation -->
<g id="edge4" class="edge"><title>ActiveRecord::Base&#45;&gt;Citation</title>
<path fill="none" stroke="black" d="M328,-704.82C328,-689.497 328,-665.586 328,-640.001"/>
</g>
<!-- ActiveRecord::Base&#45;&gt;Galaxy -->
<g id="edge7" class="edge"><title>ActiveRecord::Base&#45;&gt;Galaxy</title>
<path fill="none" stroke="black" d="M353.04,-705.58C370.689,-692.395 392.909,-672.133 403,-648 442.53,-553.464 422.431,-434.597 399.999,-354.565"/>
</g>
<!-- ActiveRecord::Base&#45;&gt;GalaxyCitation -->
<g id="edge8" class="edge"><title>ActiveRecord::Base&#45;&gt;GalaxyCitation</title>
<path fill="none" stroke="black" d="M302.96,-705.58C285.311,-692.395 263.091,-672.133 253,-648 213.652,-553.9 248.655,-245.276 264.834,-121.52"/>
</g>
<!-- ActiveRecord::Base&#45;&gt;Velocity -->
<g id="edge9" class="edge"><title>ActiveRecord::Base&#45;&gt;Velocity</title>
<path fill="none" stroke="black" d="M362.073,-706.539C384.974,-694.189 413.524,-674.546 428,-648 518.076,-482.82 485.476,-249.776 461.47,-136.518"/>
</g>
</g>
</svg>
