<?xml version="1.0" encoding="UTF-8" standalone="no"?>
<!DOCTYPE svg PUBLIC "-//W3C//DTD SVG 1.1//EN"
 "http://www.w3.org/Graphics/SVG/1.1/DTD/svg11.dtd">
<!-- Generated by graphviz version 2.38.0 (20140413.2041)
 -->
<!-- Title: models_diagram Pages: 1 -->
<svg width="461pt" height="302pt"
 viewBox="0.00 0.00 461.45 302.00" xmlns="http://www.w3.org/2000/svg" xmlns:xlink="http://www.w3.org/1999/xlink">
<g id="graph0" class="graph" transform="scale(1 1) rotate(0) translate(4 298)">
<title>models_diagram</title>
<polygon fill="white" stroke="none" points="-4,4 -4,-298 457.446,-298 457.446,4 -4,4"/>
<!-- _diagram_info -->
<g id="node1" class="node"><title>_diagram_info</title>
<text text-anchor="start" x="8" y="-279.6" font-family="Times New Roman,serif" font-size="13.00">Models diagram</text>
<text text-anchor="start" x="8" y="-265.6" font-family="Times New Roman,serif" font-size="13.00">Date: Jul 28 2014 &#45; 10:56</text>
<text text-anchor="start" x="8" y="-251.6" font-family="Times New Roman,serif" font-size="13.00">Migration version: 20140723001033</text>
<text text-anchor="start" x="8" y="-237.6" font-family="Times New Roman,serif" font-size="13.00">Generated by RailRoady 1.1.1</text>
<text text-anchor="start" x="8" y="-223.6" font-family="Times New Roman,serif" font-size="13.00">http://railroady.prestonlee.com</text>
</g>
<!-- Admin -->
<g id="node2" class="node"><title>Admin</title>
<ellipse fill="none" stroke="black" cx="180.5" cy="-162" rx="35.194" ry="18"/>
<text text-anchor="middle" x="180.5" y="-158.3" font-family="Times New Roman,serif" font-size="14.00">Admin</text>
</g>
<!-- Citation -->
<g id="node3" class="node"><title>Citation</title>
<ellipse fill="none" stroke="black" cx="310.5" cy="-162" rx="38.9931" ry="18"/>
<text text-anchor="middle" x="310.5" y="-158.3" font-family="Times New Roman,serif" font-size="14.00">Citation</text>
</g>
<!-- Galaxy -->
<g id="node4" class="node"><title>Galaxy</title>
<ellipse fill="none" stroke="black" cx="351.5" cy="-90" rx="36.2938" ry="18"/>
<text text-anchor="middle" x="351.5" y="-86.3" font-family="Times New Roman,serif" font-size="14.00">Galaxy</text>
</g>
<!-- Citation&#45;&gt;Galaxy -->
<g id="edge3" class="edge"><title>Citation&#45;&gt;Galaxy</title>
<path fill="none" stroke="#caa104" d="M325.437,-135.497C329.117,-129.215 333.055,-122.492 336.726,-116.224"/>
<polygon fill="#caa104" stroke="#caa104" points="325.271,-135.782 316.333,-142.137 322.743,-140.097 320.216,-144.411 320.216,-144.411 320.216,-144.411 322.743,-140.097 324.099,-146.685 325.271,-135.782 325.271,-135.782"/>
<polygon fill="#caa104" stroke="#caa104" points="336.799,-116.099 345.736,-109.744 339.326,-111.784 341.853,-107.47 341.853,-107.47 341.853,-107.47 339.326,-111.784 337.97,-105.196 336.799,-116.099 336.799,-116.099"/>
</g>
<!-- GalaxyCitation -->
<g id="node5" class="node"><title>GalaxyCitation</title>
<ellipse fill="none" stroke="black" cx="287.5" cy="-18" rx="64.189" ry="18"/>
<text text-anchor="middle" x="287.5" y="-14.3" font-family="Times New Roman,serif" font-size="14.00">GalaxyCitation</text>
</g>
<!-- Citation&#45;&gt;GalaxyCitation -->
<g id="edge2" class="edge"><title>Citation&#45;&gt;GalaxyCitation</title>
<path fill="none" stroke="#9a2121" d="M306.439,-135.929C302.357,-110.725 296.084,-71.9942 291.889,-46.0947"/>
<ellipse fill="none" stroke="#9a2121" cx="307.086" cy="-139.923" rx="4.00001" ry="4.00001"/>
<polygon fill="#9a2121" stroke="#9a2121" points="291.883,-46.0606 294.726,-35.4697 291.084,-41.1249 290.284,-36.1893 290.284,-36.1893 290.284,-36.1893 291.084,-41.1249 285.842,-36.9088 291.883,-46.0606 291.883,-46.0606"/>
</g>
<!-- Galaxy&#45;&gt;GalaxyCitation -->
<g id="edge5" class="edge"><title>Galaxy&#45;&gt;GalaxyCitation</title>
<path fill="none" stroke="#3ae810" d="M331.461,-67.0823C324.534,-59.5057 316.733,-50.9738 309.647,-43.2232"/>
<ellipse fill="none" stroke="#3ae810" cx="334.278" cy="-70.1638" rx="4.00002" ry="4.00002"/>
<polygon fill="#3ae810" stroke="#3ae810" points="309.605,-43.1777 306.179,-32.7609 306.231,-39.4875 302.858,-35.7973 302.858,-35.7973 302.858,-35.7973 306.231,-39.4875 299.536,-38.8338 309.605,-43.1777 309.605,-43.1777"/>
</g>
<!-- Velocity -->
<g id="node6" class="node"><title>Velocity</title>
<ellipse fill="none" stroke="black" cx="412.5" cy="-18" rx="40.8928" ry="18"/>
<text text-anchor="middle" x="412.5" y="-14.3" font-family="Times New Roman,serif" font-size="14.00">Velocity</text>
</g>
<!-- Galaxy&#45;&gt;Velocity -->
<g id="edge6" class="edge"><title>Galaxy&#45;&gt;Velocity</title>
<path fill="none" stroke="#118fc8" d="M370.679,-66.9911C377.244,-59.4573 384.625,-50.9876 391.338,-43.2844"/>
<ellipse fill="none" stroke="#118fc8" cx="367.97" cy="-70.1003" rx="4.00002" ry="4.00002"/>
<polygon fill="#118fc8" stroke="#118fc8" points="391.72,-42.8461 401.682,-38.2634 395.005,-39.0766 398.29,-35.307 398.29,-35.307 398.29,-35.307 395.005,-39.0766 394.897,-32.3506 391.72,-42.8461 391.72,-42.8461"/>
</g>
<!-- ActiveRecord::Base -->
<g id="node7" class="node"><title>ActiveRecord::Base</title>
<ellipse fill="none" stroke="black" cx="310.5" cy="-255" rx="83.3857" ry="18"/>
<text text-anchor="middle" x="310.5" y="-251.3" font-family="Times New Roman,serif" font-size="14.00">ActiveRecord::Base</text>
</g>
<!-- ActiveRecord::Base&#45;&gt;Admin -->
<g id="edge1" class="edge"><title>ActiveRecord::Base&#45;&gt;Admin</title>
<path fill="none" stroke="black" d="M286.958,-237.521C262.227,-220.209 223.754,-193.277 200.46,-176.972"/>
</g>
<!-- ActiveRecord::Base&#45;&gt;Citation -->
<g id="edge4" class="edge"><title>ActiveRecord::Base&#45;&gt;Citation</title>
<path fill="none" stroke="black" d="M310.5,-236.884C310.5,-220.614 310.5,-196.284 310.5,-180.04"/>
</g>
<!-- ActiveRecord::Base&#45;&gt;Galaxy -->
<g id="edge7" class="edge"><title>ActiveRecord::Base&#45;&gt;Galaxy</title>
<path fill="none" stroke="black" d="M325.487,-237.205C337.031,-223.069 352.069,-201.732 358.5,-180 365.669,-155.775 360.871,-126.317 356.438,-108.112"/>
</g>
<!-- ActiveRecord::Base&#45;&gt;GalaxyCitation -->
<g id="edge8" class="edge"><title>ActiveRecord::Base&#45;&gt;GalaxyCitation</title>
<path fill="none" stroke="black" d="M295.513,-237.205C283.969,-223.069 268.931,-201.732 262.5,-180 247.41,-129.008 267.966,-66.0819 279.951,-36.2505"/>
</g>
<!-- ActiveRecord::Base&#45;&gt;Velocity -->
<g id="edge9" class="edge"><title>ActiveRecord::Base&#45;&gt;Velocity</title>
<path fill="none" stroke="black" d="M328.201,-237.256C342.209,-223.15 361.37,-201.827 373.5,-180 400.044,-132.237 408.67,-66.6864 411.353,-36.0618"/>
</g>
</g>
</svg>
